<?xml version="1.0" encoding="UTF-8" standalone="no"?>
<!-- Created with Inkscape (http://www.inkscape.org/) -->

<svg
   xmlns:dc="http://purl.org/dc/elements/1.1/"
   xmlns:cc="http://creativecommons.org/ns#"
   xmlns:rdf="http://www.w3.org/1999/02/22-rdf-syntax-ns#"
   xmlns:svg="http://www.w3.org/2000/svg"
   xmlns="http://www.w3.org/2000/svg"
   xmlns:sodipodi="http://sodipodi.sourceforge.net/DTD/sodipodi-0.dtd"
   xmlns:inkscape="http://www.inkscape.org/namespaces/inkscape"
   width="265.66418"
   height="32.71207"
   viewBox="0 0 70.29032 8.6550685"
   version="1.1"
   id="svg8"
   inkscape:version="0.92.5 (2060ec1f9f, 2020-04-08)"
   sodipodi:docname="rorSVGlogotipoWhite2020.svg">
  <defs
     id="defs2" />
  <sodipodi:namedview
     id="base"
     pagecolor="#181820"
     bordercolor="#666666"
     borderopacity="1.0"
     inkscape:pageopacity="1"
     inkscape:pageshadow="2"
     inkscape:zoom="2.8"
     inkscape:cx="62.207152"
     inkscape:cy="-23.99667"
     inkscape:document-units="mm"
     inkscape:current-layer="g3974"
     showgrid="false"
     units="px"
     showguides="true"
     inkscape:guide-bbox="true"
     fit-margin-top="0"
     fit-margin-left="0"
     fit-margin-right="0"
     fit-margin-bottom="0"
     inkscape:window-width="1862"
     inkscape:window-height="1043"
     inkscape:window-x="58"
     inkscape:window-y="0"
     inkscape:window-maximized="1">
    <sodipodi:guide
       position="9.3918789,8.1632281"
       orientation="0,1"
       id="guide4043"
       inkscape:locked="false" />
    <sodipodi:guide
       position="16.184287,1.8688891"
       orientation="0,1"
       id="guide4045"
       inkscape:locked="false" />
    <sodipodi:guide
       position="16.171827,8.8483101"
       orientation="1,0"
       id="guide4047"
       inkscape:locked="false" />
    <sodipodi:guide
       position="16.892344,8.1632261"
       orientation="1,0"
       id="guide4049"
       inkscape:locked="false" />
    <sodipodi:guide
       position="10.357489,7.0115851"
       orientation="1,0"
       id="guide4070"
       inkscape:locked="false" />
    <sodipodi:guide
       position="11.08096,6.9761471"
       orientation="1,0"
       id="guide4894"
       inkscape:locked="false" />
  </sodipodi:namedview>
  <metadata
     id="metadata5">
    <rdf:RDF>
      <cc:Work
         rdf:about="">
        <dc:format>image/svg+xml</dc:format>
        <dc:type
           rdf:resource="http://purl.org/dc/dcmitype/StillImage" />
        <dc:title></dc:title>
      </cc:Work>
    </rdf:RDF>
  </metadata>
  <g
     inkscape:label="Layer 1"
     inkscape:groupmode="layer"
     id="layer1"
     transform="translate(-18.011397,-243.5915)">
    <g
       transform="matrix(0.12109675,0,0,0.12109675,9.4762025,238.07389)"
       id="g3974">
      <g
         id="svgg-0"
         transform="matrix(0.57112961,0,0,0.57112961,60.351629,34.484664)">
        <path
           style="fill:#ffffff"
           inkscape:connector-curvature="0"
           id="path0-3"
           d="m 54.557,19.47 c -3.067,0.928 -4.919,27.133 -4.262,60.326 0.507,25.698 0.433,35.57 -0.298,39.064 -1.265,6.057 -2.872,5.326 -4.215,-1.918 -0.493,-2.656 -0.578,-8.032 -0.772,-48.92 -0.229,-47.939 -0.2,-47.096 -1.65,-47.096 -7.29,0 -19.364,9.512 -22.988,18.105 -2.657,6.306 -3.47,20.584 -1.669,29.322 5.122,24.854 13.332,42.987 24.182,53.418 11.45,11.002 27.636,12.556 47.217,4.526 5.87,-2.407 6.057,-2.858 4.074,-9.854 C 90.028,101.797 85.845,94.89 72.392,80.458 64.811,72.325 63.367,70.122 61.939,64.512 59.315,54.207 60.691,46.258 68.051,29.216 c 3.778,-8.747 3.772,-8.799 -1.044,-9.28 -3.833,-0.382 -11.744,-0.68 -12.45,-0.466 m 24.285,3.493 c -0.182,0.431 -0.997,2.572 -1.812,4.763 -0.815,2.188 -2.45,6.33 -3.634,9.203 -8.647,20.998 -8.497,22.229 4.442,36.4 11.028,12.081 18.883,26.182 21.705,38.971 0.787,3.562 1.431,5.875 1.791,6.426 0.333,0.516 2.042,-0.523 4.924,-2.994 0.871,-0.746 2.554,-2.188 3.739,-3.205 14.413,-12.355 27.905,-29.918 30.49,-39.693 C 144.402,58.038 125.321,38.37 96.399,27.385 95.761,27.143 94.418,26.628 93.414,26.24 84.596,22.833 79.392,21.664 78.842,22.963" />
      </g>
      <g
         id="g3972">
        <path
           style="fill:#ffffff"
           inkscape:connector-curvature="0"
           d="m 161.978,49.958 h 23.475 c 3.866,0 7.054,0.575 9.562,1.723 4.764,2.203 7.146,6.271 7.146,12.199 0,3.094 -0.639,5.625 -1.916,7.594 -1.278,1.969 -3.064,3.551 -5.361,4.746 2.016,0.821 3.533,1.898 4.553,3.234 1.02,1.336 1.587,3.504 1.705,6.504 l 0.246,6.926 c 0.07,1.969 0.234,3.434 0.492,4.395 0.422,1.642 1.172,2.695 2.25,3.164 v 1.16 h -8.578 c -0.234,-0.444 -0.422,-1.02 -0.562,-1.723 -0.14,-0.703 -0.258,-2.062 -0.352,-4.078 l -0.422,-8.613 c -0.159,-3.375 -1.378,-5.637 -3.655,-6.785 -1.298,-0.633 -3.336,-0.948 -6.114,-0.948 h -15.473 v 22.147 h -6.996 z M 184.7,73.62 c 3.19,0 5.714,-0.656 7.572,-1.97 1.858,-1.312 2.787,-3.678 2.787,-7.102 0,-3.679 -1.299,-6.188 -3.897,-7.523 -1.391,-0.703 -3.248,-1.055 -5.573,-1.055 h -16.616 v 17.648 z"
           id="path3948" />
        <path
           style="fill:#ffffff"
           inkscape:connector-curvature="0"
           d="m 235.543,64.988 c 2.492,1.255 4.391,2.878 5.695,4.869 1.258,1.898 2.096,4.113 2.516,6.646 0.373,1.735 0.559,4.5 0.559,8.297 h -27.387 c 0.116,3.831 1.012,6.904 2.686,9.22 1.674,2.314 4.267,3.472 7.778,3.472 3.279,0 5.896,-1.095 7.849,-3.284 1.093,-1.271 1.868,-2.743 2.324,-4.415 h 6.223 c -0.164,1.383 -0.709,2.924 -1.635,4.623 -0.926,1.7 -1.959,3.088 -3.098,4.166 -1.908,1.875 -4.269,3.142 -7.083,3.797 -1.512,0.375 -3.222,0.562 -5.129,0.562 -4.658,0 -8.606,-1.705 -11.844,-5.114 -3.238,-3.41 -4.856,-8.187 -4.856,-14.326 0,-6.047 1.63,-10.957 4.892,-14.729 3.261,-3.773 7.523,-5.66 12.788,-5.66 2.656,-0.005 5.229,0.622 7.722,1.876 z m 2.267,14.783 c -0.256,-2.742 -0.849,-4.934 -1.778,-6.574 -1.72,-3.045 -4.59,-4.569 -8.61,-4.569 -2.882,0 -5.299,1.05 -7.251,3.146 -1.952,2.099 -2.987,4.765 -3.103,7.998 h 20.742 z"
           id="path3950" />
        <path
           style="fill:#ffffff"
           inkscape:connector-curvature="0"
           d="m 272.509,78.816 c 1.453,-0.187 2.426,-0.795 2.918,-1.824 0.281,-0.564 0.421,-1.376 0.421,-2.436 0,-2.164 -0.766,-3.734 -2.298,-4.711 -1.532,-0.977 -3.725,-1.465 -6.578,-1.465 -3.298,0 -5.638,0.896 -7.018,2.686 -0.771,0.99 -1.274,2.461 -1.508,4.416 h -5.906 c 0.117,-4.653 1.621,-7.892 4.512,-9.713 2.891,-1.822 6.245,-2.731 10.06,-2.731 4.424,0 8.018,0.844 10.78,2.53 2.739,1.688 4.108,4.312 4.108,7.875 v 21.693 c 0,0.656 0.135,1.184 0.404,1.582 0.269,0.397 0.838,0.596 1.705,0.596 0.281,0 0.598,-0.018 0.949,-0.053 0.351,-0.035 0.726,-0.087 1.125,-0.158 v 4.676 c -0.984,0.281 -1.735,0.457 -2.25,0.527 -0.516,0.069 -1.219,0.104 -2.109,0.104 -2.18,0 -3.762,-0.772 -4.746,-2.32 -0.516,-0.819 -0.879,-1.979 -1.09,-3.479 -1.289,1.688 -3.141,3.152 -5.555,4.395 -2.414,1.241 -5.075,1.862 -7.98,1.862 -3.493,0 -6.346,-1.06 -8.561,-3.179 -2.215,-2.117 -3.322,-4.769 -3.322,-7.953 0,-3.486 1.09,-6.19 3.27,-8.109 2.18,-1.919 5.039,-3.102 8.578,-3.547 z m -13.324,17.097 c 1.336,1.052 2.918,1.578 4.746,1.578 2.227,0 4.382,-0.515 6.469,-1.544 3.516,-1.709 5.273,-4.504 5.273,-8.389 v -5.09 c -0.772,0.494 -1.766,0.905 -2.982,1.234 -1.216,0.33 -2.409,0.564 -3.579,0.705 l -3.824,0.49 c -2.292,0.306 -4.016,0.785 -5.171,1.439 -1.957,1.1 -2.936,2.854 -2.936,5.262 -10e-4,1.823 0.668,3.261 2.004,4.315 z"
           id="path3952" />
        <path
           style="fill:#ffffff"
           inkscape:connector-curvature="0"
           d="m 313.059,65.111 c 1.121,0.703 2.393,1.935 3.817,3.691 v -19.02 h 6.082 v 51.82 h -5.695 v -5.237 c -1.471,2.319 -3.211,3.995 -5.219,5.026 -2.008,1.031 -4.308,1.547 -6.899,1.547 -4.179,0 -7.798,-1.764 -10.856,-5.291 -3.058,-3.526 -4.588,-8.221 -4.588,-14.08 0,-5.483 1.395,-10.235 4.185,-14.256 2.79,-4.02 6.776,-6.028 11.96,-6.028 2.87,10e-4 5.275,0.611 7.213,1.828 z m -14.125,28.23 c 1.702,2.719 4.431,4.078 8.186,4.078 2.915,0 5.31,-1.26 7.188,-3.779 1.877,-2.519 2.816,-6.135 2.816,-10.846 0,-4.758 -0.968,-8.279 -2.903,-10.564 -1.935,-2.285 -4.326,-3.428 -7.17,-3.428 -3.172,0 -5.743,1.219 -7.713,3.656 -1.97,2.437 -2.955,6.023 -2.955,10.758 -0.004,4.033 0.848,7.408 2.551,10.125 z"
           id="path3954" />
        <path
           style="fill:#ffffff"
           inkscape:connector-curvature="0"
           d="m 359.697,67.708 c 3.328,3.23 4.992,7.984 4.992,14.26 0,6.065 -1.468,11.077 -4.398,15.034 -2.934,3.958 -7.482,5.937 -13.65,5.937 -5.144,0 -9.228,-1.75 -12.253,-5.252 -3.026,-3.5 -4.538,-8.201 -4.538,-14.103 0,-6.323 1.594,-11.356 4.782,-15.104 3.188,-3.746 7.472,-5.619 12.847,-5.619 4.816,0 8.89,1.617 12.218,4.847 z m -3.93,25.024 c 1.541,-3.17 2.312,-6.701 2.312,-10.586 0,-3.512 -0.558,-6.367 -1.669,-8.567 -1.762,-3.466 -4.797,-5.197 -9.107,-5.197 -3.824,0 -6.605,1.476 -8.343,4.425 -1.738,2.95 -2.606,6.508 -2.606,10.674 0,4.004 0.868,7.34 2.606,10.008 1.737,2.668 4.496,4.003 8.274,4.003 4.147,-0.001 6.992,-1.588 8.533,-4.76 z"
           id="path3956" />
        <path
           style="fill:#ffffff"
           inkscape:connector-curvature="0"
           d="m 372.458,63.952 h 6.012 v 5.344 c 1.781,-2.202 3.668,-3.784 5.66,-4.746 1.992,-0.961 4.207,-1.44 6.645,-1.44 5.345,0 8.953,1.863 10.828,5.59 1.031,2.039 1.547,4.957 1.547,8.754 v 24.15 h -6.434 v -23.73 c 0,-2.297 -0.34,-4.147 -1.02,-5.556 -1.125,-2.342 -3.164,-3.516 -6.117,-3.516 -1.5,0 -2.73,0.153 -3.691,0.457 -1.734,0.516 -3.258,1.547 -4.57,3.094 -1.055,1.244 -1.739,2.526 -2.057,3.851 -0.316,1.323 -0.475,3.217 -0.475,5.678 v 19.722 h -6.328 z"
           id="path3958" />
        <path
           style="fill:#ffffff"
           inkscape:connector-curvature="0"
           d="m 412.676,49.958 h 6.328 v 51.645 h -6.328 z"
           id="path3960" />
        <path
           style="fill:#ffffff"
           inkscape:connector-curvature="0"
           d="m 452.035,63.952 h 6.996 c -0.891,2.416 -2.871,7.926 -5.941,16.53 -2.297,6.473 -4.219,11.748 -5.766,15.828 -3.653,9.603 -6.229,15.457 -7.729,17.564 -1.498,2.107 -4.074,3.162 -7.727,3.162 -0.891,0 -1.575,-0.035 -2.057,-0.105 -0.479,-0.07 -1.07,-0.199 -1.772,-0.387 v -5.766 c 1.101,0.305 1.896,0.492 2.387,0.562 0.49,0.07 0.925,0.104 1.3,0.104 1.168,0 2.028,-0.192 2.578,-0.578 0.551,-0.387 1.012,-0.859 1.387,-1.422 0.117,-0.188 0.539,-1.146 1.264,-2.877 0.727,-1.73 1.252,-3.018 1.58,-3.858 l -13.922,-38.76 h 7.172 l 10.09,30.67 z"
           id="path3962" />
        <path
           style="fill:#ffffff"
           inkscape:connector-curvature="0"
           d="m 466.185,49.958 h 23.474 c 3.867,0 7.057,0.575 9.562,1.723 4.764,2.203 7.146,6.271 7.146,12.199 0,3.094 -0.639,5.625 -1.916,7.594 -1.277,1.969 -3.064,3.551 -5.361,4.746 2.016,0.821 3.533,1.898 4.553,3.234 1.02,1.336 1.588,3.504 1.705,6.504 l 0.246,6.926 c 0.07,1.969 0.234,3.434 0.492,4.395 0.422,1.642 1.172,2.695 2.25,3.164 v 1.16 h -8.578 c -0.234,-0.444 -0.422,-1.02 -0.562,-1.723 -0.139,-0.703 -0.258,-2.062 -0.352,-4.078 l -0.422,-8.613 c -0.158,-3.375 -1.377,-5.637 -3.654,-6.785 -1.299,-0.633 -3.336,-0.948 -6.115,-0.948 h -15.472 v 22.147 h -6.996 z m 22.722,23.662 c 3.191,0 5.715,-0.656 7.572,-1.97 1.857,-1.312 2.787,-3.678 2.787,-7.102 0,-3.679 -1.299,-6.188 -3.896,-7.523 -1.391,-0.703 -3.248,-1.055 -5.574,-1.055 h -16.614 v 17.648 z"
           id="path3964" />
        <path
           style="fill:#ffffff"
           inkscape:connector-curvature="0"
           d="m 518.004,49.958 h 37.477 v 6.328 h -30.656 v 15.68 h 28.336 v 5.977 h -28.336 v 17.509 h 31.186 v 6.151 H 518.007 V 49.958 Z"
           id="path3966" />
        <path
           style="fill:#ffffff"
           inkscape:connector-curvature="0"
           d="m 569.93,84.939 c 0.158,2.931 0.824,5.31 1.998,7.138 2.234,3.422 6.176,5.133 11.818,5.133 2.529,0 4.832,-0.375 6.908,-1.125 4.02,-1.453 6.029,-4.056 6.029,-7.806 0,-2.811 -0.854,-4.815 -2.557,-6.012 -1.725,-1.172 -4.426,-2.19 -8.104,-3.059 l -6.777,-1.582 c -4.428,-1.031 -7.561,-2.167 -9.4,-3.41 -3.18,-2.156 -4.768,-5.379 -4.768,-9.668 0,-4.641 1.562,-8.449 4.688,-11.426 3.126,-2.977 7.549,-4.465 13.273,-4.465 5.27,0 9.744,1.307 13.428,3.92 3.684,2.613 5.525,6.791 5.525,12.533 h -6.574 c -0.338,-2.766 -1.057,-4.887 -2.156,-6.363 -2.045,-2.695 -5.518,-4.043 -10.416,-4.043 -3.955,0 -6.797,0.867 -8.527,2.602 -1.73,1.735 -2.596,3.75 -2.596,6.047 0,2.531 1.021,4.383 3.064,5.556 1.34,0.75 4.373,1.688 9.098,2.812 l 7.016,1.652 c 3.385,0.797 5.996,1.887 7.834,3.27 3.18,2.414 4.77,5.918 4.77,10.512 0,5.72 -2.027,9.81 -6.086,12.271 -4.057,2.462 -8.77,3.69 -14.143,3.69 -6.264,0 -11.166,-1.641 -14.709,-4.922 -3.543,-3.256 -5.281,-7.676 -5.211,-13.254 h 6.575 z"
           id="path3968" />
        <path
           style="fill:#ffffff"
           inkscape:connector-curvature="0"
           d="m 650.93,49.958 v 6.152 h -17.402 v 45.492 h -7.066 V 56.111 H 609.06 V 49.96 Z"
           id="path3970" />
      </g>
    </g>
  </g>
</svg>
